HIERARCHY
ROOT Hips
{
	OFFSET -14.64140 90.27770 -84.91600
	CHANNELS 6 Xposition Yposition Zposition Zrotation Xrotation Yrotation
	JOINT Spine
	{
		OFFSET 0.00000 13.20850 -1.60436
		CHANNELS 3 Zrotation Xrotation Yrotation
		JOINT Spine1
		{
			OFFSET 0.00000 8.61716 0.00000
			CHANNELS 3 Zrotation Xrotation Yrotation
			JOINT Spine2
			{
				OFFSET 0.00000 8.61717 0.00000
				CHANNELS 3 Zrotation Xrotation Yrotation
				JOINT Spine3
				{
					OFFSET 0.00000 8.61717 0.00000
					CHANNELS 3 Zrotation Xrotation Yrotation
					JOINT Neck
					{
						OFFSET 0.00000 11.07920 1.10792
						CHANNELS 3 Zrotation Xrotation Yrotation
						JOINT Neck1
						{
							OFFSET 0.00000 7.08032 0.00000
							CHANNELS 3 Zrotation Xrotation Yrotation
							JOINT Head
							{
								OFFSET 0.00000 7.08031 0.00000
								CHANNELS 3 Zrotation Xrotation Yrotation
								End site
								{
									OFFSET 0.00000 0.00000 0.00000
								}
							}
						}
					}
					JOINT RightShoulder
					{
						OFFSET -0.01000 7.91373 5.19711
						CHANNELS 3 Zrotation Xrotation Yrotation
						JOINT RightArm
						{
							OFFSET -18.41580 0.00000 0.00000
							CHANNELS 3 Zrotation Xrotation Yrotation
							JOINT RightForeArm
							{
								OFFSET -29.11090 0.00000 0.00000
								CHANNELS 3 Zrotation Xrotation Yrotation
								JOINT RightHand
								{
									OFFSET -24.65040 0.00000 0.00000
									CHANNELS 3 Zrotation Xrotation Yrotation
									JOINT RightHandThumb1
									{
										OFFSET -5.35114 -0.85590 3.97906
										CHANNELS 3 Zrotation Xrotation Yrotation
										JOINT RightHandThumb2
										{
											OFFSET -4.52789 0.00000 0.00000
											CHANNELS 3 Zrotation Xrotation Yrotation
											JOINT RightHandThumb3
											{
												OFFSET -2.46976 0.00000 0.00000
												CHANNELS 3 Zrotation Xrotation Yrotation
												End site
												{
													OFFSET 0.00000 0.00000 0.00000
												}
											}
										}
									}
									JOINT RightHandIndex1
									{
										OFFSET -14.26970 0.00000 2.88139
										CHANNELS 3 Zrotation Xrotation Yrotation
										JOINT RightHandIndex2
										{
											OFFSET -5.48836 0.00000 0.00000
											CHANNELS 3 Zrotation Xrotation Yrotation
											JOINT RightHandIndex3
											{
												OFFSET -3.01859 0.00000 0.00000
												CHANNELS 3 Zrotation Xrotation Yrotation
												End site
												{
													OFFSET 0.00000 0.00000 0.00000
												}
											}
										}
									}
									JOINT RightHandMiddle1
									{
										OFFSET -14.26970 0.00000 -0.09147
										CHANNELS 3 Zrotation Xrotation Yrotation
										JOINT RightHandMiddle2
										{
											OFFSET -6.17441 0.00000 0.00000
											CHANNELS 3 Zrotation Xrotation Yrotation
											JOINT RightHandMiddle3
											{
												OFFSET -3.56743 0.00000 0.00000
												CHANNELS 3 Zrotation Xrotation Yrotation
												End site
												{
													OFFSET 0.00000 0.00000 0.00000
												}
											}
										}
									}
									JOINT RightHandRing1
									{
										OFFSET -12.69180 0.00000 -3.06433
										CHANNELS 3 Zrotation Xrotation Yrotation
										JOINT RightHandRing2
										{
											OFFSET -5.62556 0.00000 0.00000
											CHANNELS 3 Zrotation Xrotation Yrotation
											JOINT RightHandRing3
											{
												OFFSET -3.56744 0.00000 0.00000
												CHANNELS 3 Zrotation Xrotation Yrotation
												End site
												{
													OFFSET 0.00000 0.00000 0.00000
												}
											}
										}
									}
									JOINT RightHandPinky1
									{
										OFFSET -11.11390 0.00000 -6.03719
										CHANNELS 3 Zrotation Xrotation Yrotation
										JOINT RightHandPinky2
										{
											OFFSET -4.52789 0.00000 0.00000
											CHANNELS 3 Zrotation Xrotation Yrotation
											JOINT RightHandPinky3
											{
												OFFSET -2.46976 0.00000 0.00000
												CHANNELS 3 Zrotation Xrotation Yrotation
												End site
												{
													OFFSET 0.00000 0.00000 0.00000
												}
											}
										}
									}
								}
							}
						}
					}
					JOINT LeftShoulder
					{
						OFFSET 0.01000 7.91373 5.19711
						CHANNELS 3 Zrotation Xrotation Yrotation
						JOINT LeftArm
						{
							OFFSET 18.41580 0.00000 0.00000
							CHANNELS 3 Zrotation Xrotation Yrotation
							JOINT LeftForeArm
							{
								OFFSET 29.11090 0.00000 0.00000
								CHANNELS 3 Zrotation Xrotation Yrotation
								JOINT LeftHand
								{
									OFFSET 24.65040 0.00000 0.00000
									CHANNELS 3 Zrotation Xrotation Yrotation
									JOINT LeftHandThumb1
									{
										OFFSET 5.35114 -0.85590 3.97906
										CHANNELS 3 Zrotation Xrotation Yrotation
										JOINT LeftHandThumb2
										{
											OFFSET 4.52789 0.00000 0.00000
											CHANNELS 3 Zrotation Xrotation Yrotation
											JOINT LeftHandThumb3
											{
												OFFSET 2.46977 0.00000 0.00000
												CHANNELS 3 Zrotation Xrotation Yrotation
												End site
												{
													OFFSET 0.00000 0.00000 0.00000
												}
											}
										}
									}
									JOINT LeftHandIndex1
									{
										OFFSET 14.26970 0.00000 2.88139
										CHANNELS 3 Zrotation Xrotation Yrotation
										JOINT LeftHandIndex2
										{
											OFFSET 5.48836 0.00000 0.00000
											CHANNELS 3 Zrotation Xrotation Yrotation
											JOINT LeftHandIndex3
											{
												OFFSET 3.01859 0.00000 0.00000
												CHANNELS 3 Zrotation Xrotation Yrotation
												End site
												{
													OFFSET 0.00000 0.00000 0.00000
												}
											}
										}
									}
									JOINT LeftHandMiddle1
									{
										OFFSET 14.26970 0.00000 -0.09147
										CHANNELS 3 Zrotation Xrotation Yrotation
										JOINT LeftHandMiddle2
										{
											OFFSET 6.17440 0.00000 0.00000
											CHANNELS 3 Zrotation Xrotation Yrotation
											JOINT LeftHandMiddle3
											{
												OFFSET 3.56744 0.00000 0.00000
												CHANNELS 3 Zrotation Xrotation Yrotation
												End site
												{
													OFFSET 0.00000 0.00000 0.00000
												}
											}
										}
									}
									JOINT LeftHandRing1
									{
										OFFSET 12.69180 0.00000 -3.06433
										CHANNELS 3 Zrotation Xrotation Yrotation
										JOINT LeftHandRing2
										{
											OFFSET 5.62556 0.00000 0.00000
											CHANNELS 3 Zrotation Xrotation Yrotation
											JOINT LeftHandRing3
											{
												OFFSET 3.56744 0.00000 0.00000
												CHANNELS 3 Zrotation Xrotation Yrotation
												End site
												{
													OFFSET 0.00000 0.00000 0.00000
												}
											}
										}
									}
									JOINT LeftHandPinky1
									{
										OFFSET 11.11390 0.00000 -6.03719
										CHANNELS 3 Zrotation Xrotation Yrotation
										JOINT LeftHandPinky2
										{
											OFFSET 4.52789 0.00000 0.00000
											CHANNELS 3 Zrotation Xrotation Yrotation
											JOINT LeftHandPinky3
											{
												OFFSET 2.46976 0.00000 0.00000
												CHANNELS 3 Zrotation Xrotation Yrotation
												End site
												{
													OFFSET 0.00000 0.00000 0.00000
												}
											}
										}
									}
								}
							}
						}
					}
					JOINT pCube4
					{
						OFFSET 0.00000 10.91090 1.10792
						CHANNELS 3 Zrotation Xrotation Yrotation
						End site
						{
							OFFSET 0.00000 0.00000 0.00000
						}
					}
				}
			}
		}
	}
	JOINT RightUpLeg
	{
		OFFSET -9.98441 0.00000 0.00000
		CHANNELS 3 Zrotation Xrotation Yrotation
		JOINT RightLeg
		{
			OFFSET 0.00000 -42.11790 0.00000
			CHANNELS 3 Zrotation Xrotation Yrotation
			JOINT RightFoot
			{
				OFFSET 0.00000 -45.00020 -0.00001
				CHANNELS 3 Zrotation Xrotation Yrotation
				JOINT RightForeFoot
				{
					OFFSET 0.00000 -3.74820 0.00000
					CHANNELS 3 Zrotation Xrotation Yrotation
					JOINT RightToeBase
					{
						OFFSET 0.00000 0.06325 14.43120
						CHANNELS 3 Zrotation Xrotation Yrotation
						End site
						{
							OFFSET 0.00000 0.00000 0.00000
						}
					}
				}
			}
		}
	}
	JOINT LeftUpLeg
	{
		OFFSET 9.98441 0.00000 0.00000
		CHANNELS 3 Zrotation Xrotation Yrotation
		JOINT LeftLeg
		{
			OFFSET 0.00000 -42.11800 0.00000
			CHANNELS 3 Zrotation Xrotation Yrotation
			JOINT LeftFoot
			{
				OFFSET 0.00000 -45.00070 0.00000
				CHANNELS 3 Zrotation Xrotation Yrotation
				JOINT LeftForeFoot
				{
					OFFSET 0.00000 -3.74824 0.00000
					CHANNELS 3 Zrotation Xrotation Yrotation
					JOINT LeftToeBase
					{
						OFFSET 0.00000 0.06325 14.43110
						CHANNELS 3 Zrotation Xrotation Yrotation
						End site
						{
							OFFSET 0.00000 0.00000 0.00000
						}
					}
				}
			}
		}
	}
}
MOTION
Frames: 4
Frame Time: 0.050000
0.01925234004485674 -0.009602797453966902 -0.04946119543997126 -0.033416956541164736 0.021797097167952056 0.02442327945253168 6.308881265008174 1.5406129817990442 -2.510829840727626 -0.7398741807534679 3.4348969762861064 0.3643180864423773 -0.5682440484384393 -1.2840040966772062 1.5841263545357278 -0.24994318211683555 -0.5050317434250893 -0.15823137212670554 0.2252727276192623 12.697050026548741 -1.73826285990276 0.38155176762259757 0.016649919662578803 -4.3361941137331135 1.0323831204306406 -16.212489212753248 -0.3485926893501551 -10.854807988547293 3.730850098670796 -17.169791127958582 79.62896267800335 13.624681152984953 20.500619504312784 0.8167606625369992 -3.0515013577449195 111.69871162745335 4.248436771578123 0.17152413324862928 1.6948798139615138 4.490180065884339 -0.08806773757049685 -1.6364384124412934 -0.030628003486102066 0.01912900190676535 -56.18941075170629 0.010035721666888273 0.01308646507469582 -56.21149591020751 -38.76893366384578 0.011129915037129023 -0.009193741805416622 -0.005141100692896722 0.03170152623431718 0.022026448276508258 -0.028328693005289406 0.023210100130186685 -0.03444528809026498 -36.70878692442883 0.01241100315413434 0.03570226208182859 0.048047990379723605 -0.002304164796737069 0.044200724795851055 0.02754364040144632 -0.0002549801889583635 -0.013090017738493952 -19.77321345645506 -0.017208780611941515 0.038085000546896376 0.03394301583808059 -0.03985813818559797 0.01599446072237656 0.04278121975274525 0.020516965406343273 -0.03704210633904715 24.08291541099648 0.04597756746573435 -0.002067210340108767 28.853496666880076 -0.003256402726310963 -0.00784439263468887 28.8865996422139 0.03824354885032615 -0.01148667106025769 10.99986067857085 2.4884334062745985 14.917738839396637 -73.2027840428286 23.93747674012761 -18.832912199500118 6.937663129100853 -7.754598407910817 -101.47855765235023 -5.877363686136275 -4.8873001746841 -2.1317580008229267 -0.4476514187561978 0.10651045176724663 -8.103552015596296 -0.022433361504600405 0.008270819347694263 44.55676982645748 -0.007465933548681163 -0.003949409120455154 44.61008132106106 12.477787857445579 0.005588704532047575 -0.03930206525916523 -0.033112259797333704 -0.046073995104037736 0.0280820194032347 0.02889509244257801 0.03131654618057535 0.04007145517813785 11.107644113321161 -0.03224023319644242 0.0019245516326358506 0.03139708453848248 0.04515967650334507 0.021088968365579577 0.005024299686050615 -0.0008353883006867702 -0.03262222734431153 4.741255063536618 0.03154510058551213 0.03224016605676417 -0.015395396105387732 -0.030725497657441064 -0.024255843822999053 0.008413469346953436 -0.01691025544579058 -0.04231134044866007 -5.627391820495722 0.005592882965654021 0.004864970418089712 -6.751992423925582 -0.009100603801001505 -0.03956381853990118 -6.752016852626266 0.041909808168828604 -0.049227775473166965 -0.04892526104605039 -0.042685480798463966 -0.043211370329999166 8.005804655670248 3.47236102533656 -19.2368571286094 -0.00724815096082801 10.354390003452327 0.011520163579834717 -5.61045280956229 -15.632468009294612 3.179308246829146 -0.01760478934965759 0.032472757182236536 0.00021975190497064626 0.0021339297317733755 4.693177969815633 0.030636071446100456 12.457998406750882 -8.263826129894362 6.859995616609124 -0.015430405934598415 46.39025718150717 0.025710270361562176 -4.365076214249204 -14.773701066094613 -3.794007636532436 0.034915037308235426 0.023184001575051637 0.03266769275695326 0.04690026220645059 -10.755431733179956 -0.014862432156718295 
0.03995131396512171 -0.016460358459909858 0.012820190928598355 -0.027532224222903363 -0.008306371322339667 -0.03971927788878206 6.356400909065019 1.6495760476185781 -2.4593271703579505 -0.7643138575168279 3.4872176674485855 0.39163561433930283 -0.49350423726814974 -1.2369909735854243 1.7658632199035942 -0.209299165508757 -0.5217403487343885 -0.18464492280889838 0.27836995168369183 12.977095684664054 -1.9255668665548618 0.2682612749504084 0.045841205507012525 -5.008467180094857 1.0844053324985392 -16.223694211564283 -0.4187813591202416 -11.173765547925202 3.7771442276871805 -17.087138708234995 78.1183979843056 12.08363310826777 22.396363796826424 1.196233149824271 -2.769387316519424 111.34987245598633 3.997377420650851 0.13466420732524007 1.8347520906796344 4.480988271025713 -0.16920570844826205 -1.596460417108415 0.03823347075605133 0.015075979078676954 -56.24352635411497 0.00887357691658849 -0.009726193276019842 -56.282539196792655 -38.80675745023709 -0.030235729324938832 0.025831309858408116 0.0448464004915155 0.03373628414476104 0.03210856136128086 0.0002776556142052578 -0.04333457149347525 0.04384497379666499 -36.6792787113612 0.010681733450106319 -0.03968316221954442 0.04397971515163872 -0.03557264214836401 0.014433964681197991 -0.011368668769329685 0.038170650622176255 0.0026031748757621327 -19.750133832609556 -0.03676792531766082 0.01789943367993194 0.005400615168403158 0.04538922881570139 0.03126196537831255 0.03994494474317294 -0.012279850228996648 -0.005559084106315795 24.09566757825721 -0.008954357022900846 -0.006941530940844186 28.847918594937493 0.005200097123141972 0.04219773008148789 28.832431809886376 0.0203829355956905 0.045320456894408605 11.058289496088442 2.5107951664367274 14.896106662886634 -72.55801926210657 22.302857668754832 -19.64030943195323 6.835476360666727 -7.095242505654028 -101.2616158967485 -5.69086295887456 -4.212790023010639 -2.6318869085338163 -0.5140332759394762 0.06995791938075735 -8.101915668172463 -0.036349064504889686 0.03180703701322474 44.59112712362075 -0.0009657007680698846 -0.027440902578369585 44.579251095085425 12.468117361848144 -0.016896584466273228 -0.01628405274183399 -0.023942449244345347 -0.028181809444978636 0.03112079598473618 -0.009423380360417443 0.012321637560180608 -0.0440934449083503 11.120023631851055 0.02979807957225196 0.0009753043569722086 0.03624323119448919 -0.00655291451437623 0.026928174652622483 0.004050212870308124 0.003876722599041731 0.014220238036348025 4.772298942024473 0.03091655549151868 -0.014628964435345965 -0.015206335066247143 0.030327773045017548 0.024099547843164502 -0.016737343881205232 0.048520100526787534 0.024842986973464296 -5.645291717012032 0.00725426541564423 -0.036363546190215666 -6.718456236097352 -0.012900813611226894 0.03561223183558984 -6.675637347781791 -0.03308265058918353 0.039248477970361954 -0.029506230516893907 -0.021903919202532273 0.01168195455156286 8.063880969702913 3.510056211333568 -19.218720588592497 -0.029377843937114 10.383362998792219 -0.02179887948028784 -5.624902514832072 -15.644618342427288 3.2056159203195342 0.016413986273795814 -0.03063592848058191 0.0216385367602309 -0.03212188221936591 4.677866270836577 -0.04795873210499902 12.48841547774145 -8.198363952398386 6.868141782250876 0.01823354189343124 46.41246289956836 -0.021777559270326225 -4.36104413764009 -14.765702516451443 -3.8324698346384527 0.00834985672666585 0.001812706899820867 0.04384272582208349 0.037753097356817956 -10.784787183318425 -0.015827038533935356 
-0.029298702295089435 0.04647387967492442 0.009464687644261637 0.003928052752764904 0.01728913698819593 -0.011084281286978704 6.5404718108697395 1.7893931933725966 -2.4884705101641877 -0.7202075320727014 3.479914166326001 0.3721048714747348 -0.5338614587226354 -1.2976077799436934 1.914928449018975 -0.20827585054647596 -0.525849865635003 -0.1557641626024146 0.30442429614026356 13.308572451827619 -2.1736317465107176 0.2471585771500372 0.17505119491940718 -5.75309100834384 1.0940669534315879 -16.095730458888415 -0.541023706128891 -11.660817845087138 3.86110854397462 -16.956037563997107 76.11926970186866 10.115386196588458 25.31698014064429 0.6303257718723987 -2.7573093918615963 110.81682625495756 3.8737271405016234 0.10240015753156897 2.064654677715325 4.489904672025194 -0.11335494835143631 -1.5803044999362124 -0.028730021587425367 -0.00852396191327554 -56.25008527066847 0.00808330157169504 0.015023348014926483 -56.23542124657846 -38.77151299110635 -0.0019138201623143099 -0.02617978280694714 -0.04685480139539613 -0.021660280634364 -0.032358917865708915 -0.014296676015638854 -0.03156148214308433 -0.027283567315815434 -36.73866874428508 -0.04864709177605857 0.0206448067524406 -0.03143055396827943 0.030043279569083817 0.0068925267889663674 0.0011651424525766796 -0.03606280511326888 -0.014905379309299237 -19.79822706217718 0.02750870232861218 0.004422633225652768 0.01458437482585622 0.01353324404837975 -0.006219284899873292 0.01849277212836148 0.038077700177426746 -0.028076250760752635 24.075574386049535 0.0352204325144346 -0.025966361236891788 28.828082558388747 -0.0030840010597262984 -0.04006850178878981 28.821313245509035 -0.025157449513555526 -0.04112345124402666 11.406409871653258 2.581143356848617 14.940215086416408 -71.11488055886399 20.346000471642224 -21.788876997798376 8.1404218791445 -6.892656576047689 -101.63167148012323 -5.38889730107768 -3.247548401280814 -3.4553704225086808 -0.4684393704546376 0.09163445433860358 -8.164073751479249 -0.044966559400354635 0.0037691659852343057 44.56343710175119 -0.04187308269339771 0.0027836334960190277 44.573987590132 12.480568552926805 0.009066777465880844 0.03348758190978235 0.02080283895981693 -0.04168914472941731 0.004723774483244081 -0.004759387068427026 0.01771117768209256 0.0027789787519864138 11.121312199216272 0.0021410486122227772 0.011720672025760619 -0.028875936605269506 0.018823907767565685 -0.031517098211350354 0.00790498233226347 -0.03297167218850457 -0.03666258371158321 4.743392250750041 -0.0313839172115252 -0.03199067488384134 -0.001399826942107972 0.03059026213916706 -0.036081911820193276 0.03157773765240163 -0.027009191745213646 0.0052006263355910175 -5.555228413575038 -0.04315544355307573 0.03173613046721426 -6.723968149519745 -0.010820910531759934 0.036234947194723685 -6.711447101274323 0.04358361723604942 0.02451224118699608 0.02235708352514021 0.03854493875697044 -0.028784629340100988 8.028577899393996 3.492279557372808 -19.204404567734077 0.013151845650789402 10.391562348549265 0.05896329903190814 -5.639439493320478 -15.653677914658147 3.153285998002945 -0.01473222164520815 0.009116208184874883 -0.03770969709896821 -0.008948742514174086 4.683959149578014 0.008208879677784907 12.492033305177761 -8.22658004583253 6.921529732303311 0.01123099190170482 46.413126950396524 -0.030449122793321758 -4.321123337300473 -14.734956660751214 -3.8151505538842834 0.04641613906800115 0.04946217006539634 0.014295007479715884 -0.029155029207371952 -10.743947811161366 0.012989106687437323 
-0.006328515981045217 -0.028191173940848593 0.014721920459232006 -0.030575684233571446 0.026307957216867812 0.028853355933119114 6.619411487597161 1.9524314707461816 -2.4324772622997872 -0.7500857842969347 3.5388838909768627 0.35687217005594085 -0.5186439756444281 -1.256369244705004 1.9804529134069508 -0.14158476044346296 -0.532614973850338 -0.1122388511305864 0.395379391297663 13.701952966860398 -2.4759076555845962 0.23623411102408917 0.26273078142323714 -6.341194976551351 1.1580276812831412 -15.954329724970288 -0.5615494997908801 -12.14779545733167 4.0414978067939735 -16.832263109497084 74.06131650472506 8.766451712642917 28.536332536186805 -0.7084806155245869 -2.772591047788287 110.20640829273474 3.9330861878303405 0.1784116661273767 2.165721059252766 4.524905265220132 -0.10867390881812096 -1.6154986679100904 0.04189529297328144 -0.03735328370031741 -56.25236866497861 0.003786009843485705 0.03394217610057725 -56.24687032878458 -38.742209706815785 -0.016175010967788304 -0.016817631579034008 -0.006062623297226041 0.010053737794018441 -0.029757772068228504 0.03760410491259723 0.006897219787387715 0.003780927117864174 -36.72412171021132 0.044217564619359606 0.013974757368363379 -0.02785940112968359 -0.03097529586929471 0.021940789423756445 0.0418805014306171 -0.02189363116892485 -0.004275550531402037 -19.729260225278225 0.03153326347180337 -0.004274369338382775 -0.004152597567268114 -0.041903970794139746 -0.015199792980692652 -0.043460215948263894 0.03313958481290782 -0.03441141525656214 24.063888564633235 0.0029555400350995695 0.008663211545876641 28.854450900796785 0.009974038373064884 0.0007209021822102792 28.817860234751354 -0.026792405151703287 -0.013277966362037711 11.836448827480249 2.6037798438093986 14.925854497585172 -69.35699594236048 18.630385000576382 -24.779298788566987 10.213789968479917 -6.79056783287712 -102.3672768483655 -5.144422005383457 -2.0526880697029766 -4.1677724894589385 -0.4624525105911295 0.08872928786047574 -8.083264584691067 -0.010538341233439535 0.047892199953238804 44.53035565487543 -0.029956983060018018 0.028540160275548527 44.540765644915865 12.463628522654766 -0.01901718523566858 0.04138139801132631 -0.036811225472495455 0.03968046453674048 0.003150726937140941 -0.011291489915757331 0.009463899804772835 0.008383688739443456 11.15049567612929 -0.033035979607345285 -0.02024299201034277 0.036522195952968885 0.01764703155276395 0.0468897395044582 0.021107791870560073 -0.00799736568591451 0.03058586632718422 4.75591830485967 0.04498454043348524 0.03285169062525615 0.00574119302739513 -0.016422478341661047 0.03541508655884946 -0.022710036541493502 0.0019124506177005739 0.011202354348333273 -5.572843127271992 0.03146656299024585 -0.049524127581193754 -6.746586045934433 -0.014551578463865126 -0.037992522352256024 -6.745950202395799 -0.01577028475102578 -0.0034883028090547294 0.020624160258563968 0.008576761501470433 0.041820699813140474 8.043584105389947 3.5345517326927145 -19.22443881568985 -0.031143717962400348 10.352840331426522 0.01711231318129388 -5.669426994246184 -15.675885648852237 3.1478598160937805 0.020096904720152554 0.032975522731840484 -0.01941354666755283 -0.045669529625188464 4.6748600300659415 0.016417239968352253 12.450153350621646 -8.194908196527786 6.912888536076407 -0.0037460638497224534 46.401846618371145 0.03369724469092112 -4.331909094123672 -14.74417390489541 -3.8259268230835684 0.01713156523990206 0.02878854684643777 0.0177391314223562 -0.049778114480312316 -10.698470947820335 0.027719830386997282 
